<svg width="167" height="48" viewBox="0 0 167 48" fill="none" xmlns="http://www.w3.org/2000/svg">
<path d="M74.592 9.56C76.5547 9.56 78.2827 9.86933 79.776 10.488C81.2907 11.0853 82.6027 11.9707 83.712 13.144L81.056 16.696C80.1387 15.736 79.1467 15.0213 78.08 14.552C77.0347 14.0613 75.84 13.816 74.496 13.816C73.7067 13.816 73.0667 13.9013 72.576 14.072C72.0853 14.2427 71.7333 14.4773 71.52 14.776C71.3067 15.0747 71.2 15.416 71.2 15.8C71.2 16.248 71.4027 16.632 71.808 16.952C72.2347 17.2507 72.9173 17.5067 73.856 17.72L77.408 18.52C79.52 19.0107 81.0667 19.7253 82.048 20.664C83.0293 21.6027 83.52 22.8507 83.52 24.408C83.52 25.9013 83.136 27.1707 82.368 28.216C81.6 29.24 80.544 30.0187 79.2 30.552C77.856 31.064 76.32 31.32 74.592 31.32C73.184 31.32 71.84 31.1707 70.56 30.872C69.28 30.552 68.128 30.104 67.104 29.528C66.08 28.952 65.216 28.2907 64.512 27.544L67.168 23.864C67.7013 24.4827 68.352 25.0373 69.12 25.528C69.9093 25.9973 70.7627 26.3707 71.68 26.648C72.6187 26.9253 73.568 27.064 74.528 27.064C75.2747 27.064 75.8933 26.9893 76.384 26.84C76.896 26.6907 77.2693 26.4667 77.504 26.168C77.7387 25.8693 77.856 25.5173 77.856 25.112C77.856 24.664 77.696 24.2907 77.376 23.992C77.056 23.672 76.448 23.4053 75.552 23.192L71.648 22.328C70.4533 22.0507 69.3867 21.688 68.448 21.24C67.5307 20.7707 66.8053 20.152 66.272 19.384C65.7387 18.5947 65.472 17.6133 65.472 16.44C65.472 15.1173 65.8347 13.944 66.56 12.92C67.2853 11.8747 68.3307 11.0533 69.696 10.456C71.0613 9.85867 72.6933 9.56 74.592 9.56ZM94.161 14.68C95.7823 14.68 97.1263 14.9147 98.193 15.384C99.281 15.832 100.124 16.44 100.721 17.208C101.34 17.9547 101.724 18.7653 101.873 19.64L96.849 21.304C96.6997 20.3867 96.4223 19.704 96.017 19.256C95.633 18.7867 95.0677 18.552 94.321 18.552C93.6383 18.552 93.0623 18.712 92.593 19.032C92.145 19.3307 91.8037 19.8213 91.569 20.504C91.3343 21.1653 91.217 22.0187 91.217 23.064C91.217 24.1093 91.345 24.9627 91.601 25.624C91.857 26.264 92.2197 26.7333 92.689 27.032C93.1583 27.3093 93.713 27.448 94.353 27.448C94.8863 27.448 95.3237 27.352 95.665 27.16C96.0277 26.9467 96.3263 26.648 96.561 26.264C96.7957 25.88 96.945 25.4107 97.009 24.856L101.905 26.424C101.756 27.3627 101.35 28.2053 100.689 28.952C100.049 29.6773 99.1957 30.2533 98.129 30.68C97.0623 31.1067 95.8143 31.32 94.385 31.32C92.6357 31.32 91.1103 31 89.809 30.36C88.5077 29.6987 87.505 28.7493 86.801 27.512C86.097 26.2533 85.745 24.7493 85.745 23C85.745 21.2507 86.097 19.7573 86.801 18.52C87.505 17.2613 88.4863 16.312 89.745 15.672C91.025 15.0107 92.497 14.68 94.161 14.68ZM104.733 31V15H109.533L109.757 18.456C110.163 17.2613 110.76 16.3333 111.549 15.672C112.36 15.0107 113.384 14.68 114.621 14.68C115.027 14.68 115.368 14.712 115.645 14.776C115.944 14.84 116.179 14.9253 116.349 15.032L115.805 19.512C115.592 19.4267 115.315 19.3627 114.973 19.32C114.653 19.256 114.259 19.224 113.789 19.224C113.149 19.224 112.552 19.3627 111.997 19.64C111.443 19.9173 110.995 20.3333 110.653 20.888C110.333 21.4213 110.173 22.104 110.173 22.936V31H104.733ZM123.891 31.32C122.803 31.32 121.843 31.1387 121.011 30.776C120.201 30.392 119.561 29.784 119.091 28.952C118.622 28.12 118.387 27.032 118.387 25.688V15H123.827V24.408C123.827 25.432 124.03 26.1467 124.435 26.552C124.841 26.9573 125.417 27.16 126.163 27.16C126.547 27.16 126.91 27.096 127.251 26.968C127.593 26.8187 127.891 26.6053 128.147 26.328C128.403 26.0293 128.595 25.656 128.723 25.208C128.873 24.7387 128.947 24.1947 128.947 23.576V15H134.387V31H129.523L129.363 27.992C128.851 29.1227 128.137 29.9653 127.219 30.52C126.302 31.0533 125.193 31.32 123.891 31.32ZM144.984 9.912V25.304C144.984 26.072 145.165 26.6267 145.528 26.968C145.912 27.288 146.434 27.448 147.096 27.448C147.608 27.448 148.045 27.3947 148.408 27.288C148.792 27.16 149.133 26.9787 149.432 26.744L150.008 30.104C149.474 30.488 148.802 30.7867 147.992 31C147.181 31.2133 146.349 31.32 145.496 31.32C144.28 31.32 143.224 31.1493 142.328 30.808C141.453 30.4667 140.77 29.9227 140.28 29.176C139.81 28.4293 139.565 27.4373 139.544 26.2V11.416L144.984 9.912ZM149.752 15V18.872H136.792V15H149.752ZM151.433 31V27.672L157.801 20.44L159.497 18.744L156.969 18.808H151.497V15H165.513V18.328L159.241 25.496L157.481 27.256L160.297 27.192H165.801V31H151.433Z" fill="url(#paint0_linear_4004_39)"/>
<path d="M24.4201 34.0922V41.3442C24.4201 41.9742 23.9121 42.5002 23.3031 42.5002C23.1555 42.4992 23.0096 42.4683 22.8742 42.4096C22.7388 42.3508 22.6166 42.2653 22.5151 42.1582L11.4951 30.8082C9.33607 28.6002 8.14307 25.5782 8.14307 22.4522C8.14307 16.0142 13.1961 10.7852 19.4431 10.7852H31.2001C37.4471 10.7852 42.5001 16.0152 42.5001 22.4522C42.5001 28.8892 37.4471 34.1182 31.2001 34.1182H24.4201V34.0922Z" fill="black" stroke="#0C0C0C" stroke-linecap="round" stroke-linejoin="round"/>
<path d="M16.8 29.286C10.553 29.286 5.5 23.956 5.5 17.393C5.5 10.83 10.553 5.5 16.8 5.5H28.557C34.804 5.5 39.857 10.83 39.857 17.393C39.857 23.956 34.804 29.286 28.557 29.286H16.8Z" fill="#247B7B" stroke="black" stroke-linecap="round" stroke-linejoin="round"/>
<g clip-path="url(#clip0_4004_39)">
<path d="M28.0046 14.1157C27.9469 14.0459 27.8745 13.9897 27.7926 13.9511C27.7107 13.9125 27.6212 13.8925 27.5307 13.8925H27.5146H27.5155H25.9384L26.3757 11.7644C26.3974 11.6704 26.3977 11.5726 26.3764 11.4784C26.3552 11.3842 26.3129 11.296 26.2528 11.2204L26.2537 11.2218C26.1958 11.152 26.1233 11.0959 26.0412 11.0574C25.9591 11.0189 25.8696 10.999 25.7789 10.999H25.7638H25.7647C25.3522 11.0123 25.0117 11.3038 24.9237 11.6911L24.9223 11.6971L24.8036 12.2755C24.7999 12.2901 24.7935 12.3039 24.7903 12.3186L24.4658 13.8929H21.8107L22.2479 11.7649C22.2697 11.6708 22.27 11.573 22.2487 11.4788C22.2274 11.3846 22.1852 11.2965 22.1251 11.2209L22.126 11.2222C22.0681 11.1525 21.9955 11.0963 21.9134 11.0578C21.8314 11.0193 21.7418 10.9994 21.6512 10.9995H21.636H21.6369C21.2244 11.0128 20.8839 11.3043 20.7959 11.6916L20.7945 11.6975L20.6708 12.2993C20.6708 12.3062 20.6662 12.3121 20.6648 12.3186L20.3431 13.8929H18.6257C18.2132 13.9062 17.8727 14.1973 17.7842 14.5846L17.7828 14.5905C17.7609 14.6846 17.7605 14.7825 17.7817 14.8768C17.8029 14.9711 17.8451 15.0593 17.9052 15.135L17.9043 15.1336C18.0179 15.2702 18.188 15.3569 18.3787 15.3569H18.3942H18.3933H20.0419L19.5735 17.6348H17.8543C17.4418 17.6481 17.1013 17.9396 17.0128 18.3269L17.0114 18.3328C16.9899 18.4267 16.9897 18.5243 17.0109 18.6183C17.032 18.7123 17.0741 18.8003 17.1338 18.8759L17.1329 18.8746C17.247 19.0111 17.4171 19.0978 17.6077 19.0978H17.6233H17.6224H19.271L18.831 21.2373C18.8092 21.3314 18.809 21.4291 18.8302 21.5233C18.8515 21.6175 18.8938 21.7057 18.9539 21.7813L18.9529 21.7799C19.0671 21.9165 19.2371 22.0031 19.4278 22.0031H19.4429H19.442C19.639 21.9969 19.8284 21.9256 19.9806 21.8004C20.1328 21.6752 20.2393 21.5032 20.2835 21.3111L20.2849 21.3051L20.7386 19.0987H23.3951L22.9551 21.2382C22.9333 21.3323 22.9331 21.4301 22.9543 21.5243C22.9756 21.6185 23.0179 21.7066 23.0779 21.7822L23.077 21.7809C23.1912 21.9174 23.3612 22.0036 23.5519 22.0036H23.567H23.5661C23.763 21.9974 23.9524 21.9262 24.1046 21.8009C24.2567 21.6757 24.3631 21.5036 24.4071 21.3115L24.4085 21.3056L24.8622 19.0991H26.5122C26.7092 19.0929 26.8985 19.0217 27.0507 18.8966C27.203 18.7715 27.3095 18.5995 27.3537 18.4075L27.3551 18.4016C27.3777 18.3076 27.3786 18.2097 27.3577 18.1154C27.3368 18.0211 27.2947 17.9327 27.2346 17.8571L27.2355 17.8584C27.1775 17.7886 27.1049 17.7324 27.0227 17.6938C26.9406 17.6553 26.8509 17.6352 26.7602 17.6352H26.7437H26.7446H25.1647L25.6332 15.3573H27.2832C27.4802 15.3511 27.6696 15.2798 27.8218 15.1546C27.974 15.0294 28.0805 14.8573 28.1247 14.6652L28.126 14.6593C28.1479 14.5651 28.1481 14.4673 28.1269 14.373C28.1056 14.2787 28.0633 14.1904 28.0032 14.1148L28.0041 14.1161L28.0046 14.1157ZM21.042 17.6334L21.5104 15.3555H24.1669L23.6985 17.6334H21.042Z" fill="#0C0C0C"/>
</g>
<defs>
<linearGradient id="paint0_linear_4004_39" x1="67.0294" y1="4" x2="160.334" y2="51.9663" gradientUnits="userSpaceOnUse">
<stop stop-color="#247B7B"/>
<stop offset="1" stop-color="#3B247B"/>
</linearGradient>
<clipPath id="clip0_4004_39">
<rect width="11" height="11" fill="white" transform="translate(17 11)"/>
</clipPath>
</defs>
</svg>
